HIERARCHY
ROOT hip
{
  OFFSET 0.0 0.0 0.0
  CHANNELS 6 Xposition Yposition Zposition Zrotation Yrotation Xrotation
  JOINT torso
  {
    OFFSET 0.0 0.0 0.0
    CHANNELS 3 Zrotation Xrotation Yrotation
    JOINT neck
    {
      OFFSET -8.059630999999968 325.56260699999996 64.6221310000002
      CHANNELS 3 Zrotation Xrotation Yrotation
      JOINT head
      {
        OFFSET 34.685424000000125 375.1179809999999 232.79357900000002
        CHANNELS 3 Zrotation Xrotation Yrotation
        End Site
        {
          OFFSET 0.0 0.0 0.0
        }
      }
    }
    JOINT left_collar
    {
      OFFSET -8.059630999999968 325.56260699999996 64.6221310000002
      CHANNELS 3 Zrotation Xrotation Yrotation
      JOINT left_upper_arm
      {
        OFFSET -124.124665 -15.370300999999927 25.582641999999964
        CHANNELS 3 Zrotation Xrotation Yrotation
        JOINT left_forearm
        {
          OFFSET -268.19913399999996 105.06054699999993 114.74548300000004
          CHANNELS 3 Zrotation Xrotation Yrotation
          JOINT left_hand
          {
            OFFSET -235.82003099999991 -10.198180999999977 -38.67455999999993
            CHANNELS 3 Zrotation Xrotation Yrotation
            End Site
            {
              OFFSET 0.0 0.0 0.0
            }
          }
        }
      }
    }
    JOINT right_collar
    {
      OFFSET -8.059630999999968 325.56260699999996 64.6221310000002
      CHANNELS 3 Zrotation Xrotation Yrotation
      JOINT right_upper_arm
      {
        OFFSET 162.73931899999997 -2.8598030000000563 26.244994999999903
        CHANNELS 3 Zrotation Xrotation Yrotation
        JOINT right_forearm
        {
          OFFSET 284.6506340000001 103.07031299999994 145.84521499999994
          CHANNELS 3 Zrotation Xrotation Yrotation
          JOINT right_hand
          {
            OFFSET 226.332337 -12.198241999999937 -49.27258299999994
            CHANNELS 3 Zrotation Xrotation Yrotation
            End Site
            {
              OFFSET 0.0 0.0 0.0
            }
          }
        }
      }
    }
  }
}
MOTION
Frames: 6
Frame Time: 0.01
400.1577033805705 218.46182639850358 760.4172972364369 -0.4076027131864886 -0.20153245821419466 -4.38180066767495 0.12715338002631046 -1.26583327843588 -0.057856786439851954 0.07277396466555203 -0.780627277337079 0.026410511514449155 0.0 0.0 0.0 0.622324998254948 -0.1493793665027618 2.1513903478687473 -1.717319722297524 1.1965163618362527 4.781168062910487 0.9337821360860883 -0.2554153454342647 1.9739462231837166 0.0 0.0 0.0 -0.35436335084949466 0.10869298691626993 2.4752601163806998 4.451449176849721 -1.1548755686132621 -2.81447788545686 -7.260754414582082 -2.2794326523790707 -5.659348889599627 0.0 0.0 0.0
400.20995703076255 218.49195046388363 760.1701669010249 -0.4138976629557964 -0.20339610707850656 -4.405162373492851 0.1322707554552958 -1.2607845239767852 -0.05879679899072053 0.07356750955620295 -0.793335674806705 0.027074895563314886 0.0 0.0 0.0 0.6287661666819143 -0.15213914812886448 2.1821768081103943 -1.662300418253217 1.2356558592597537 4.827396050171618 0.7999238132669574 -0.22368515357839056 1.8284186132667708 0.0 0.0 0.0 -0.3520585999235505 0.10868337014711618 2.495057321637225 4.390009420892676 -1.1037212398982106 -2.8658914354322294 -7.098300954452763 -2.2252516272252314 -5.578840894638678 0.0 0.0 0.0
400.25828078774254 218.5202282639418 759.9211866914874 -0.4198358722252804 -0.2053702334936536 -4.427190773007546 0.13738688073149327 -1.2557864199698692 -0.05973742567099825 0.07444569668790302 -0.8058767397291754 0.027670851222363596 0.0 0.0 0.0 0.6351740366642209 -0.15487439871079914 2.212699519163518 -1.6046027772126459 1.2762868361389774 4.875025353041468 0.658089227559191 -0.1905751229905455 1.6766506901583178 0.0 0.0 0.0 -0.3500930423811545 0.10872428968209462 2.514325244216745 4.3251849079446005 -1.0499357458699277 -2.919940958431599 -6.922961273935114 -2.167319026929453 -5.494009082642918 0.0 0.0 0.0
400.3027692241822 218.54457387996695 759.6683785515028 -0.42524921737726784 -0.20747562489041285 -4.447052905039817 0.14244860341131643 -1.250850597170541 -0.06066786611933926 0.07555002731720614 -0.8185144493930279 0.028134027310334292 0.0 0.0 0.0 0.6416084687688072 -0.15754052525614629 2.242699012076147 -1.5422847894448695 1.3193503369843806 4.924613811046111 0.5034009981835514 -0.15505330962821595 1.5140084727756082 0.0 0.0 0.0 -0.348660375855663 0.10884429913558473 2.5327137458187754 4.2546989729091145 -0.9916706672976513 -2.978480123808815 -6.72954596285978 -2.103889419805756 -5.401488848622825 0.0 0.0 0.0
400.34368351138863 218.5626938946431 759.4095487905277 -0.4299781150537867 -0.2097354483169758 -4.463915962043968 0.1474010035395866 -1.2459901660507244 -0.06157699951388809 0.07702426672993275 -0.8315525063071093 0.02840222417715379 0.0 0.0 0.0 0.6481402141693502 -0.16009324321804855 2.27193376691883 -1.47328044141603 1.3658352390855883 4.976743445734325 0.33083424574302184 -0.11610585410391334 1.335487044291313 0.0 0.0 0.0 -0.34794986574421755 0.10907174830171695 2.549896081139262 4.17613761335474 -0.9269769620603708 -3.043491138885402 -6.512854224479112 -2.033230496259898 -5.297607106313949 0.0 0.0 0.0
400.38146402653683 218.5721261360363 759.1423605416094 -0.4338787017488046 -0.21217635269896365 -4.476971910478875 0.15218846442993916 -1.2412201566383883 -0.062453619927873384 0.07901042906613584 -0.8453282112788382 0.028417333046126914 0.0 0.0 0.0 0.6548494389345222 -0.1624896858769709 2.3001866021221993 -1.3954459794135077 1.416753563283332 5.032006195255752 0.13536785797815834 -0.07278491066909933 1.1358169967234233 0.0 0.0 0.0 -0.3481400881140747 0.10943382456767163 2.565580203169052 4.087007407177353 -0.8538569999873488 -3.117039200475595 -6.2678553834736075 -1.953693570829342 -5.178439591077635 0.0 0.0 0.0
